<mxfile host="app.diagrams.net" modified="2024-07-16T07:51:40.700Z" agent="Mozilla/5.0 (Windows NT 10.0; Win64; x64) AppleWebKit/537.36 (KHTML, like Gecko) Chrome/126.0.0.0 Safari/537.36" version="24.6.5" etag="-G3GYpchcddHbqEEpUZ-" type="github">
  <diagram name="第 1 页" id="7DH47kOOylvc84Oaq4o9">
    <mxGraphModel>
      <root>
        <mxCell id="0" />
        <mxCell id="1" parent="0" />
      </root>
    </mxGraphModel>
  </diagram>
</mxfile>
